<?xml version="1.0" standalone="no"?>
<!DOCTYPE svg PUBLIC "-//W3C//DTD SVG 1.1//EN" "http://www.w3.org/Graphics/SVG/1.1/DTD/svg11.dtd" >
<svg xmlns="http://www.w3.org/2000/svg">
<metadata>Generated by IcoMoon</metadata>
<defs>
<font id="leafy-icon" horiz-adv-x="1024">
<font-face units-per-em="1024" ascent="896" descent="-128" />
<missing-glyph horiz-adv-x="1024" />
<glyph unicode="&#x20;" horiz-adv-x="0" d="" />
<glyph unicode="&#xe900;" glyph-name="alert" d="M147.429 59.429c0-20.229 16.343-36.571 36.571-36.571h656c20.229 0 36.571 16.343 36.571 36.571v266.286c0 201.371-163.2 364.571-364.571 364.571s-364.571-163.2-364.571-364.571v-266.286zM229.714 325.714c0 155.886 126.4 282.286 282.286 282.286s282.286-126.4 282.286-282.286v-220.571h-405.714v195.429c0 6.286-5.143 11.429-11.429 11.429h-50.286c-6.286 0-11.429-5.143-11.429-11.429v-195.429h-85.714v220.571zM174.743 614.286l45.257 45.257c3.543 3.543 3.543 9.371 0 12.914l-77.6 77.6c-1.657 1.642-3.939 2.656-6.457 2.656s-4.8-1.014-6.458-2.657l-45.256-45.256c-1.642-1.657-2.656-3.939-2.656-6.457s1.014-4.8 2.657-6.458l77.599-77.599c3.543-3.543 9.257-3.543 12.914 0zM940 704.8l-45.257 45.257c-1.657 1.642-3.939 2.656-6.457 2.656s-4.8-1.014-6.458-2.657l-77.599-77.599c-1.642-1.657-2.656-3.939-2.656-6.457s1.014-4.8 2.657-6.458l45.256-45.256c3.543-3.543 9.371-3.543 12.914 0l77.6 77.6c3.543 3.657 3.543 9.371 0 12.914zM877.714-50.286h-731.429c-20.229 0-36.571-16.343-36.571-36.571v-27.429c0-5.029 4.114-9.143 9.143-9.143h786.286c5.029 0 9.143 4.114 9.143 9.143v27.429c0 20.229-16.343 36.571-36.571 36.571zM480 763.429h64c5.029 0 9.143 4.114 9.143 9.143v109.714c0 5.029-4.114 9.143-9.143 9.143h-64c-5.029 0-9.143-4.114-9.143-9.143v-109.714c0-5.029 4.114-9.143 9.143-9.143z" />
<glyph unicode="&#xe901;" glyph-name="arrow-left" d="M923.429 427.429h-668.686l400.229 347.429c6.4 5.6 2.514 16-5.943 16h-101.143c-4.457 0-8.686-1.6-12-4.457l-431.886-374.743c-7.738-6.734-12.602-16.599-12.602-27.6s4.863-20.866 12.557-27.562l0.044-0.038 434.4-377.029c1.714-1.486 3.771-2.286 5.943-2.286h104.571c8.457 0 12.343 10.514 5.943 16l-400.114 347.429h668.686c5.029 0 9.143 4.114 9.143 9.143v68.571c0 5.029-4.114 9.143-9.143 9.143z" />
<glyph unicode="&#xe902;" glyph-name="barcode" d="M64 786.286h-54.857c-5.029 0-9.143-4.114-9.143-9.143v-786.286c0-5.029 4.114-9.143 9.143-9.143h54.857c5.029 0 9.143 4.114 9.143 9.143v786.286c0 5.029-4.114 9.143-9.143 9.143zM1016 786.286h-54.857c-5.029 0-9.143-4.114-9.143-9.143v-786.286c0-5.029 4.114-9.143 9.143-9.143h54.857c5.029 0 9.143 4.114 9.143 9.143v786.286c0 5.029-4.114 9.143-9.143 9.143zM155.429 128h128c5.029 0 9.143 4.114 9.143 9.143v640c0 5.029-4.114 9.143-9.143 9.143h-128c-5.029 0-9.143-4.114-9.143-9.143v-640c0-5.029 4.114-9.143 9.143-9.143zM522.286 128h54.857c5.029 0 9.143 4.114 9.143 9.143v640c0 5.029-4.114 9.143-9.143 9.143h-54.857c-5.029 0-9.143-4.114-9.143-9.143v-640c0-5.029 4.114-9.143 9.143-9.143zM666.286 128h203.429c5.029 0 9.143 4.114 9.143 9.143v640c0 5.029-4.114 9.143-9.143 9.143h-203.429c-5.029 0-9.143-4.114-9.143-9.143v-640c0-5.029 4.114-9.143 9.143-9.143zM374.857 128h54.857c5.029 0 9.143 4.114 9.143 9.143v640c0 5.029-4.114 9.143-9.143 9.143h-54.857c-5.029 0-9.143-4.114-9.143-9.143v-640c0-5.029 4.114-9.143 9.143-9.143zM284.571 54.857h-128c-5.029 0-9.143-4.114-9.143-9.143v-54.857c0-5.029 4.114-9.143 9.143-9.143h128c5.029 0 9.143 4.114 9.143 9.143v54.857c0 5.029-4.114 9.143-9.143 9.143zM578.286 54.857h-54.857c-5.029 0-9.143-4.114-9.143-9.143v-54.857c0-5.029 4.114-9.143 9.143-9.143h54.857c5.029 0 9.143 4.114 9.143 9.143v54.857c0 5.029-4.114 9.143-9.143 9.143zM870.857 54.857h-203.429c-5.029 0-9.143-4.114-9.143-9.143v-54.857c0-5.029 4.114-9.143 9.143-9.143h203.429c5.029 0 9.143 4.114 9.143 9.143v54.857c0 5.029-4.114 9.143-9.143 9.143zM430.857 54.857h-54.857c-5.029 0-9.143-4.114-9.143-9.143v-54.857c0-5.029 4.114-9.143 9.143-9.143h54.857c5.029 0 9.143 4.114 9.143 9.143v54.857c0 5.029-4.114 9.143-9.143 9.143z" />
<glyph unicode="&#xe903;" glyph-name="bell" d="M859.429 91.429h-27.429v388.571c0 161.257-119.2 294.514-274.286 316.686v44.457c0 25.257-20.457 45.714-45.714 45.714s-45.714-20.457-45.714-45.714v-44.457c-155.086-22.171-274.286-155.429-274.286-316.686v-388.571h-27.429c-20.229 0-36.571-16.343-36.571-36.571v-36.571c0-5.029 4.114-9.143 9.143-9.143h246.857c0-70.629 57.371-128 128-128s128 57.371 128 128h246.857c5.029 0 9.143 4.114 9.143 9.143v36.571c0 20.229-16.343 36.571-36.571 36.571zM512-45.714c-30.286 0-54.857 24.571-54.857 54.857h109.714c0-30.286-24.571-54.857-54.857-54.857zM274.286 91.429v388.571c0 63.543 24.686 123.2 69.6 168.114s104.571 69.6 168.114 69.6c63.543 0 123.2-24.686 168.114-69.6s69.6-104.571 69.6-168.114v-388.571h-475.429z" />
<glyph unicode="&#xe904;" glyph-name="book" d="M877.714 896h-731.429c-20.229 0-36.571-16.343-36.571-36.571v-950.857c0-20.229 16.343-36.571 36.571-36.571h731.429c20.229 0 36.571 16.343 36.571 36.571v950.857c0 20.229-16.343 36.571-36.571 36.571zM580.571 813.714h109.714v-239.886l-53.143 38.743-56.571-40.457v241.6zM832-45.714h-640v859.429h320v-339.314c0-3.771 1.143-7.543 3.429-10.629 3.333-4.669 8.733-7.677 14.835-7.677 4.001 0 7.7 1.293 10.702 3.485l-0.052-0.036 95.771 68.457 93.029-67.886c3.086-2.286 6.857-3.543 10.743-3.543 10.057 0 18.286 8.229 18.286 18.286v338.857h73.143v-859.429z" />
<glyph unicode="&#xe905;" glyph-name="calendar" d="M932.571 758.857h-192v73.143c0 5.029-4.114 9.143-9.143 9.143h-64c-5.029 0-9.143-4.114-9.143-9.143v-73.143h-292.571v73.143c0 5.029-4.114 9.143-9.143 9.143h-64c-5.029 0-9.143-4.114-9.143-9.143v-73.143h-192c-20.229 0-36.571-16.343-36.571-36.571v-758.857c0-20.229 16.343-36.571 36.571-36.571h841.143c20.229 0 36.571 16.343 36.571 36.571v758.857c0 20.229-16.343 36.571-36.571 36.571zM886.857 9.143h-749.714v434.286h749.714v-434.286zM137.143 521.143v155.429h146.286v-54.857c0-5.029 4.114-9.143 9.143-9.143h64c5.029 0 9.143 4.114 9.143 9.143v54.857h292.571v-54.857c0-5.029 4.114-9.143 9.143-9.143h64c5.029 0 9.143 4.114 9.143 9.143v54.857h146.286v-155.429h-749.714z" />
<glyph unicode="&#xe906;" glyph-name="camera" d="M914.286 685.714h-155.429l-37.029 103.771c-5.241 14.249-18.696 24.229-34.482 24.229-0.011 0-0.023 0-0.034 0h-350.627c-15.429 0-29.257-9.714-34.4-24.229l-37.143-103.771h-155.429c-50.514 0-91.429-40.914-91.429-91.429v-521.143c0-50.514 40.914-91.429 91.429-91.429h804.571c50.514 0 91.429 40.914 91.429 91.429v521.143c0 50.514-40.914 91.429-91.429 91.429zM923.429 73.143c0-5.029-4.114-9.143-9.143-9.143h-804.571c-5.029 0-9.143 4.114-9.143 9.143v521.143c0 5.029 4.114 9.143 9.143 9.143h213.371l19.543 54.629 26.171 73.371h286.286l26.171-73.371 19.543-54.629h213.486c5.029 0 9.143-4.114 9.143-9.143v-521.143zM512 530.286c-101.029 0-182.857-81.829-182.857-182.857s81.829-182.857 182.857-182.857 182.857 81.829 182.857 182.857-81.829 182.857-182.857 182.857zM512 237.714c-60.571 0-109.714 49.143-109.714 109.714s49.143 109.714 109.714 109.714 109.714-49.143 109.714-109.714-49.143-109.714-109.714-109.714z" />
<glyph unicode="&#xe907;" glyph-name="caret-down" d="M840.4 596h-656.8c-19.7 0-30.7-20.8-18.5-35l328.4-380.8c9.4-10.9 27.5-10.9 37 0l328.4 380.8c12.2 14.2 1.2 35-18.5 35z" />
<glyph unicode="&#xe908;" glyph-name="carry-out" d="M932.571 758.857h-192v73.143c0 5.029-4.114 9.143-9.143 9.143h-64c-5.029 0-9.143-4.114-9.143-9.143v-73.143h-292.571v73.143c0 5.029-4.114 9.143-9.143 9.143h-64c-5.029 0-9.143-4.114-9.143-9.143v-73.143h-192c-20.229 0-36.571-16.343-36.571-36.571v-758.857c0-20.229 16.343-36.571 36.571-36.571h841.143c20.229 0 36.571 16.343 36.571 36.571v758.857c0 20.229-16.343 36.571-36.571 36.571zM886.857 9.143h-749.714v667.429h146.286v-54.857c0-5.029 4.114-9.143 9.143-9.143h64c5.029 0 9.143 4.114 9.143 9.143v54.857h292.571v-54.857c0-5.029 4.114-9.143 9.143-9.143h64c5.029 0 9.143 4.114 9.143 9.143v54.857h146.286v-667.429zM713.143 489.143h-63.086c-5.829 0-11.429-2.857-14.857-7.543l-172.457-237.486-73.943 101.714c-3.429 4.686-8.914 7.543-14.857 7.543h-63.086c-7.429 0-11.771-8.457-7.429-14.514l144.457-198.857c3.386-4.596 8.777-7.545 14.857-7.545s11.471 2.949 14.822 7.495l0.036 0.051 242.971 334.514c4.343 6.171 0 14.629-7.429 14.629z" />
<glyph unicode="&#xe909;" glyph-name="check-circle" d="M725.714 565.714h-53.6c-11.657 0-22.743-5.6-29.6-15.2l-179.657-249.143-81.371 112.914c-6.857 9.486-17.829 15.2-29.6 15.2h-53.6c-7.429 0-11.771-8.457-7.429-14.514l142.4-197.486c6.675-9.236 17.415-15.176 29.543-15.176s22.868 5.94 29.47 15.070l0.073 0.106 240.686 333.714c4.457 6.057 0.114 14.514-7.314 14.514zM512 896c-282.743 0-512-229.257-512-512s229.257-512 512-512 512 229.257 512 512-229.257 512-512 512zM512-41.143c-234.743 0-425.143 190.4-425.143 425.143s190.4 425.143 425.143 425.143 425.143-190.4 425.143-425.143-190.4-425.143-425.143-425.143z" />
<glyph unicode="&#xe90a;" glyph-name="clock-circle" d="M512 896c-282.743 0-512-229.257-512-512s229.257-512 512-512 512 229.257 512 512-229.257 512-512 512zM512-41.143c-234.743 0-425.143 190.4-425.143 425.143s190.4 425.143 425.143 425.143 425.143-190.4 425.143-425.143-190.4-425.143-425.143-425.143zM711.657 239.314l-162.971 117.829v282.857c0 5.029-4.114 9.143-9.143 9.143h-54.971c-5.029 0-9.143-4.114-9.143-9.143v-314.743c0-2.971 1.371-5.714 3.771-7.429l189.029-137.829c4.114-2.971 9.829-2.057 12.8 1.943l32.686 44.571c2.971 4.229 2.057 9.943-2.057 12.8z" />
<glyph unicode="&#xe90b;" glyph-name="contacts" d="M606.057 281.714c20.625 22.609 33.258 52.82 33.258 85.981 0 0.107 0 0.214 0 0.322v-0.017c0 70.743-57.029 128-127.314 128s-127.314-57.257-127.314-128c0-33.257 12.571-63.429 33.257-86.286-49.036-30.749-81.969-83.258-85.237-143.656l-0.020-0.458c-0.007-0.137-0.011-0.296-0.011-0.457 0-5.049 4.093-9.143 9.143-9.143 0.004 0 0.008 0 0.012 0h50.17c4.8 0 8.686 3.771 9.029 8.571 4.343 57.829 52.571 103.429 111.086 103.429s106.743-45.714 111.086-103.429c0.343-4.8 4.229-8.571 9.029-8.571h50.057c0.003 0 0.007 0 0.011 0 5.049 0 9.143 4.093 9.143 9.143 0 0.161-0.004 0.321-0.012 0.479l0.001-0.022c-3.2 60.914-36.571 113.943-85.371 144.114zM512 308.571c-32.571 0-59.086 26.629-59.086 59.429s26.514 59.429 59.086 59.429 59.086-26.629 59.086-59.429-26.514-59.429-59.086-59.429zM987.429 713.143h-182.857v64c0 5.029-4.114 9.143-9.143 9.143h-64c-5.029 0-9.143-4.114-9.143-9.143v-64h-169.143v64c0 5.029-4.114 9.143-9.143 9.143h-64c-5.029 0-9.143-4.114-9.143-9.143v-64h-169.143v64c0 5.029-4.114 9.143-9.143 9.143h-64c-5.029 0-9.143-4.114-9.143-9.143v-64h-182.857c-20.229 0-36.571-16.343-36.571-36.571v-658.286c0-20.229 16.343-36.571 36.571-36.571h950.857c20.229 0 36.571 16.343 36.571 36.571v658.286c0 20.229-16.343 36.571-36.571 36.571zM941.714 64h-859.429v566.857h137.143v-64c0-5.029 4.114-9.143 9.143-9.143h64c5.029 0 9.143 4.114 9.143 9.143v64h169.143v-64c0-5.029 4.114-9.143 9.143-9.143h64c5.029 0 9.143 4.114 9.143 9.143v64h169.143v-64c0-5.029 4.114-9.143 9.143-9.143h64c5.029 0 9.143 4.114 9.143 9.143v64h137.143v-566.857z" />
<glyph unicode="&#xe90c;" glyph-name="delete" d="M338.286 758.857h-9.143c5.029 0 9.143 4.114 9.143 9.143v-9.143h347.429v9.143c0-5.029 4.114-9.143 9.143-9.143h-9.143v-82.286h82.286v91.429c0 40.343-32.8 73.143-73.143 73.143h-365.714c-40.343 0-73.143-32.8-73.143-73.143v-91.429h82.286v82.286zM914.286 676.571h-804.571c-20.229 0-36.571-16.343-36.571-36.571v-36.571c0-5.029 4.114-9.143 9.143-9.143h69.029l28.229-597.714c1.829-38.971 34.057-69.714 73.029-69.714h518.857c39.086 0 71.2 30.629 73.029 69.714l28.229 597.714h69.029c5.029 0 9.143 4.114 9.143 9.143v36.571c0 20.229-16.343 36.571-36.571 36.571zM762.629 9.143h-501.257l-27.657 585.143h556.571l-27.657-585.143z" />
<glyph unicode="&#xe90d;" glyph-name="environment" d="M903.543 638.743c-22.662 51.499-53.448 95.39-91.219 132.137l-0.095 0.092c-37.825 37.004-82.657 67.028-132.294 87.874l-2.792 1.040c-52.343 21.714-107.886 32.686-165.143 32.686s-112.8-10.971-165.143-32.571c-50.629-20.914-96-50.857-135.086-88.914-37.839-36.855-68.62-80.741-90.265-129.577l-1.049-2.651c-22.286-51.429-33.6-106.057-33.6-162.286 0-80.686 19.314-161.029 57.257-238.514 30.514-62.286 73.143-122.971 126.857-180.686 91.771-98.514 188-158.743 215.314-174.857 7.298-4.381 16.103-6.972 25.514-6.972 0.030 0 0.061 0 0.091 0h-0.005c8.914 0 17.714 2.286 25.6 6.971 27.314 16.114 123.543 76.343 215.314 174.857 53.714 57.6 96.343 118.4 126.857 180.686 38.171 77.371 57.486 157.6 57.486 238.4 0 56.229-11.314 110.857-33.6 162.286zM512-36.8c-75.314 47.886-342.857 237.486-342.857 513.257 0 89.029 35.543 172.686 100.114 235.771 64.8 63.2 150.971 98.057 242.743 98.057s177.943-34.857 242.743-98.171c64.571-62.971 100.114-146.629 100.114-235.657 0-275.771-267.543-465.371-342.857-513.257zM512 668.571c-111.086 0-201.143-90.057-201.143-201.143s90.057-201.143 201.143-201.143 201.143 90.057 201.143 201.143-90.057 201.143-201.143 201.143zM602.514 376.914c-23.093-23.158-55.031-37.486-90.316-37.486-0.070 0-0.14 0-0.209 0h0.011c-34.171 0-66.286 13.371-90.514 37.486-23.158 23.093-37.486 55.031-37.486 90.316 0 0.070 0 0.14 0 0.209v-0.011c0 34.171 13.371 66.286 37.486 90.514 24.229 24.229 56.343 37.486 90.514 37.486s66.286-13.257 90.514-37.486c24.229-24.229 37.486-56.343 37.486-90.514s-13.257-66.286-37.486-90.514z" />
<glyph unicode="&#xe90e;" glyph-name="facebook" d="M932.571 841.143h-841.143c-20.229 0-36.571-16.343-36.571-36.571v-841.143c0-20.229 16.343-36.571 36.571-36.571h841.143c20.229 0 36.571 16.343 36.571 36.571v841.143c0 20.229-16.343 36.571-36.571 36.571zM896 0h-210.4v280.914h118.857l17.829 137.943h-136.686v88.114c0 40 11.086 67.2 68.343 67.2h73.029v123.429c-12.686 1.714-56 5.486-106.514 5.486-105.371 0-177.486-64.343-177.486-182.4v-101.714h-119.086v-137.943h119.2v-281.029h-415.086v768h768v-768z" />
<glyph unicode="&#xe90f;" d="M896 896h-768c-70.592 0-128-57.408-128-128v-768c0-70.592 57.408-128 128-128h768c70.592 0 128 57.408 128 128v768c0 70.592-57.408 128-128 128z" />
<glyph unicode="&#xe910;" d="M864 384h-160v128c0 35.328 28.672 32 64 32h64v160h-128c-106.048 0-192-85.952-192-192v-128h-128v-160h128v-352h192v352h96l64 160z" />
<glyph unicode="&#xe911;" glyph-name="form" d="M960 384h-64c-5.029 0-9.143-4.114-9.143-9.143v-365.714h-749.714v749.714h365.714c5.029 0 9.143 4.114 9.143 9.143v64c0 5.029-4.114 9.143-9.143 9.143h-411.429c-20.229 0-36.571-16.343-36.571-36.571v-841.143c0-20.229 16.343-36.571 36.571-36.571h841.143c20.229 0 36.571 16.343 36.571 36.571v411.429c0 5.029-4.114 9.143-9.143 9.143zM333.6 357.829l-2.171-135.886c-0.114-10.171 8.114-18.514 18.286-18.514h0.457l134.857 3.314c2.286 0.114 4.571 1.029 6.171 2.629l475.314 474.286c3.543 3.543 3.543 9.371 0 12.914l-142.057 141.943c-1.829 1.829-4.114 2.629-6.514 2.629s-4.686-0.914-6.514-2.629l-475.2-474.286c-1.593-1.664-2.586-3.912-2.628-6.392v-0.008zM406.171 330.857l411.771 410.857 51.657-51.543-412-411.086-52.229-1.257 0.8 53.029z" />
<glyph unicode="&#xe912;" glyph-name="gift" d="M932.571 614.857h-168.686c15.543 24.457 24.686 53.486 24.686 84.571 0 86.971-70.743 157.714-157.714 157.714-47.314 0-89.943-21.029-118.857-54.171-28.914 33.143-71.543 54.171-118.857 54.171-86.971 0-157.714-70.743-157.714-157.714 0-31.086 9.029-60.114 24.686-84.571h-168.686c-20.229 0-36.571-16.343-36.571-36.571v-228.571c0-5.029 4.114-9.143 9.143-9.143h45.714v-393.143c0-20.229 16.343-36.571 36.571-36.571h731.429c20.229 0 36.571 16.343 36.571 36.571v393.143h45.714c5.029 0 9.143 4.114 9.143 9.143v228.571c0 20.229-16.343 36.571-36.571 36.571zM550.857 699.429c0 44.114 35.886 80 80 80s80-35.886 80-80-35.886-80-80-80h-80v80zM393.143 779.429c44.114 0 80-35.886 80-80v-80h-80c-44.114 0-80 35.886-80 80s35.886 80 80 80zM132.571 418.286v118.857h340.571v-118.857h-340.571zM187.429 340.571h285.714v-352h-285.714v352zM836.571-11.429h-285.714v352h285.714v-352zM891.429 418.286h-340.571v118.857h340.571v-118.857z" />
<glyph unicode="&#xe913;" d="M226.94 277.184l-35.644-133.064-130.278-2.756c-38.934 72.214-61.018 154.836-61.018 242.636 0 84.902 20.648 164.966 57.248 235.464h0.028l115.984-21.264 50.808-115.288c-10.634-31.002-16.43-64.282-16.43-98.912 0.004-37.584 6.812-73.594 19.302-106.816z" />
<glyph unicode="&#xe914;" d="M1015.054 479.648c5.88-30.972 8.946-62.958 8.946-95.648 0-36.656-3.854-72.412-11.196-106.902-24.924-117.366-90.050-219.85-180.268-292.374l-0.028 0.028-146.088 7.454-20.676 129.070c59.864 35.108 106.648 90.050 131.292 155.822h-273.78v202.55h491.798z" />
<glyph unicode="&#xe915;" d="M832.506-15.248l0.028-0.028c-87.742-70.526-199.202-112.724-320.534-112.724-194.982 0-364.504 108.982-450.982 269.362l165.922 135.82c43.238-115.396 154.556-197.542 285.060-197.542 56.094 0 108.646 15.164 153.74 41.636l166.766-136.524z" />
<glyph unicode="&#xe916;" d="M838.808 778.128l-165.866-135.792c-46.67 29.172-101.838 46.024-160.942 46.024-133.458 0-246.858-85.914-287.93-205.448l-166.822 136.552c85.212 164.29 256.872 276.536 454.752 276.536 124.23 0 238.136-44.252 326.808-117.872z" />
<glyph unicode="&#xe917;" glyph-name="google-plus" d="M932 431.543c-0.343 30.857-0.457 61.943-0.571 92.914h-92.343c-0.343-30.857-0.571-61.829-0.8-92.914-31.086-0.114-61.943-0.343-92.8-0.686v-92.457c30.857-0.343 61.943-0.571 92.8-0.914 0.343-30.857 0.343-61.829 0.571-92.686h92.457c0.114 30.857 0.343 61.829 0.571 92.914 31.086 0.343 61.943 0.457 92.8 0.8v92.457c-30.743 0.229-61.829 0.229-92.686 0.571zM326.286 431.086c-0.114-36.914 0-73.943 0.114-110.857 61.943-2.057 124-1.143 185.943-2.057-27.314-137.486-214.171-182.057-313.029-92.229-101.714 78.743-96.914 251.429 8.8 324.571 73.943 58.971 178.971 44.457 252.914-6.629 29.029 26.857 56.229 55.657 82.4 85.371-61.486 49.029-136.914 84-217.143 80.343-167.543 5.6-321.486-141.143-324.229-308.8-10.743-137.029 79.314-271.314 206.4-319.771 126.629-48.8 289.029-15.543 369.943 98.286 53.371 71.886 64.914 164.457 58.629 251.429-103.657 0.8-207.2 0.686-310.743 0.343z" />
<glyph unicode="&#xe918;" glyph-name="google" d="M933.714 463.543h-412.914v-169.714h235.886c-10.171-54.857-41.029-101.257-87.543-132.343-39.314-26.286-89.486-41.829-148.457-41.829-114.171 0-210.743 77.143-245.257 180.8-8.686 26.286-13.714 54.4-13.714 83.314s5.029 57.029 13.714 83.314c34.629 103.543 131.2 180.686 245.371 180.686 64.343 0 122.057-22.171 167.543-65.6l125.714 125.829c-76 70.857-175.086 114.286-293.257 114.286-171.314 0-319.543-98.286-391.657-241.6-29.714-59.2-46.629-126.171-46.629-197.029s16.914-137.714 46.629-196.914c72.114-143.314 220.343-241.6 391.657-241.6 118.4 0 217.6 39.314 290.057 106.286 82.857 76.343 130.743 188.8 130.743 322.4 0 31.086-2.743 60.914-7.886 89.714z" />
<glyph unicode="&#xe919;" glyph-name="home" d="M1008.571 392l-471.2 470.971c-6.506 6.464-15.472 10.46-25.371 10.46s-18.865-3.996-25.373-10.462l-471.198-470.969c-13.276-13.226-21.49-31.523-21.49-51.74 0-0.292 0.002-0.585 0.005-0.876v0.044c0.457-40.229 33.943-72.343 74.171-72.343h48.571v-372.229h790.629v372.229h49.6c19.543 0 37.943 7.657 51.771 21.486 13.203 13.162 21.372 31.367 21.372 51.479 0 0.103 0 0.205-0.001 0.308v-0.016c0 19.429-7.657 37.829-21.486 51.657zM576-22.857h-128v233.143h128v-233.143zM825.029 349.371v-372.229h-175.886v260.571c0 25.257-20.457 45.714-45.714 45.714h-182.857c-25.257 0-45.714-20.457-45.714-45.714v-260.571h-175.886v372.229h-109.714l422.857 422.514 422.743-422.514h-109.829z" />
<glyph unicode="&#xe91a;" glyph-name="inbox" d="M885.2 449.7l-0.2 0.8-112.2 285.1c-5 16.1-19.9 27.2-36.8 27.2h-454.8c-17 0-32.1-11.3-36.9-27.6l-104.9-282.2-0.3-0.7-0.2-0.8c-1.3-4.9-1.7-9.9-1-14.8-0.1-1.6-0.2-3.2-0.2-4.8v-365.9c0.057-33.556 27.244-60.743 60.795-60.8h627.205c33.5 0 60.8 27.3 60.9 60.8v365.9c0 1.3 0 2.6-0.1 3.7 0.4 4.9 0 9.6-1.3 14.1zM589.4 492.7l-0.3-15.7c-0.8-44.9-31.8-75.1-77.1-75.1-22.1 0-41.1 7.1-54.8 20.6s-21.2 32.3-21.6 54.5l-0.3 15.7h-205.8l79.5 193.3h399.2l81.7-193.3h-200.5zM214.4 415.9h157.3c24.3-57.1 76-90.8 140.4-90.8 33.7 0 65 9.4 90.3 27.2 22.2 15.6 39.5 37.4 50.7 63.6h156.5v-333.9h-595.2v333.9z" />
<glyph unicode="&#xe91b;" glyph-name="info-circle" d="M512 896c-282.743 0-512-229.257-512-512s229.257-512 512-512 512 229.257 512 512-229.257 512-512 512zM512-41.143c-234.743 0-425.143 190.4-425.143 425.143s190.4 425.143 425.143 425.143 425.143-190.4 425.143-425.143-190.4-425.143-425.143-425.143zM457.143 585.143c0-30.297 24.56-54.857 54.857-54.857s54.857 24.56 54.857 54.857v0c0 30.297-24.56 54.857-54.857 54.857s-54.857-24.56-54.857-54.857v0zM539.429 457.143h-54.857c-5.029 0-9.143-4.114-9.143-9.143v-310.857c0-5.029 4.114-9.143 9.143-9.143h54.857c5.029 0 9.143 4.114 9.143 9.143v310.857c0 5.029-4.114 9.143-9.143 9.143z" />
<glyph unicode="&#xe91c;" glyph-name="loading" d="M988 348c-19.9 0-36 16.1-36 36 0 59.4-11.6 117-34.6 171.3-23.356 54.373-55.166 100.798-94.297 139.897l-0.003 0.003c-39.068 39.192-85.503 71.012-137.057 93.211l-2.843 1.089c-54.2 22.9-111.8 34.5-171.2 34.5-19.9 0-36 16.1-36 36s16.1 36 36 36c69.1 0 136.2-13.5 199.3-40.3 61-25.7 115.7-62.7 162.7-109.7s83.9-101.8 109.7-162.7c26.7-63.1 40.2-130.2 40.2-199.3 0.1-19.9-16-36-35.9-36z" />
<glyph unicode="&#xe91d;" glyph-name="lock" d="M877.714 438.857h-77.714v256c0 80.8-65.486 146.286-146.286 146.286h-283.429c-80.8 0-146.286-65.486-146.286-146.286v-256h-77.714c-20.229 0-36.571-16.343-36.571-36.571v-438.857c0-20.229 16.343-36.571 36.571-36.571h731.429c20.229 0 36.571 16.343 36.571 36.571v438.857c0 20.229-16.343 36.571-36.571 36.571zM306.286 694.857c0 35.314 28.686 64 64 64h283.429c35.314 0 64-28.686 64-64v-256h-411.429v256zM832 9.143h-640v347.429h640v-347.429zM480 168v-60.571c0-5.029 4.114-9.143 9.143-9.143h45.714c5.029 0 9.143 4.114 9.143 9.143v60.571c13.919 10.080 22.869 26.28 22.869 44.571 0 30.303-24.565 54.869-54.869 54.869s-54.869-24.565-54.869-54.869c0-18.291 8.95-34.491 22.709-44.461l0.16-0.11z" />
<glyph unicode="&#xe91e;" glyph-name="logout" d="M918.857 132.571h-80.343c-5.486 0-10.629-2.4-14.057-6.629-8-9.714-16.571-19.086-25.6-28-35.989-36.024-78.735-65.29-126.175-85.736l-2.625-1.007c-46.301-20.087-100.226-31.772-156.881-31.772-0.253 0-0.506 0-0.758 0.001h0.039c-54.743 0-107.771 10.743-157.6 31.771-50.066 21.453-92.811 50.719-128.797 86.74l-0.003 0.003c-36.061 35.915-65.362 78.585-85.85 125.956l-1.007 2.616c-21.143 49.829-31.771 102.743-31.771 157.486s10.743 107.657 31.771 157.486c20.343 48.114 49.6 91.429 86.857 128.571s80.571 66.4 128.8 86.743c49.829 21.029 102.857 31.771 157.6 31.771s107.771-10.629 157.6-31.771c48.229-20.343 91.543-49.6 128.8-86.743 9.029-9.029 17.486-18.4 25.6-28 3.429-4.229 8.686-6.629 14.057-6.629h80.343c7.2 0 11.657 8 7.657 14.057-87.657 136.229-241.029 226.4-415.314 225.943-273.829-0.686-493.371-222.971-490.629-496.457 2.743-269.143 221.943-486.4 491.886-486.4 173.829 0 326.514 90.057 414.057 225.943 3.886 6.057-0.457 14.057-7.657 14.057zM1020.457 391.2l-162.171 128c-6.057 4.8-14.857 0.457-14.857-7.2v-86.857h-358.857c-5.029 0-9.143-4.114-9.143-9.143v-64c0-5.029 4.114-9.143 9.143-9.143h358.857v-86.857c0-7.657 8.914-12 14.857-7.2l162.171 128c2.144 1.689 3.508 4.285 3.508 7.2s-1.364 5.511-3.489 7.185l-0.019 0.015z" />
<glyph unicode="&#xe91f;" glyph-name="mail" d="M987.429 786.286h-950.857c-20.229 0-36.571-16.343-36.571-36.571v-731.429c0-20.229 16.343-36.571 36.571-36.571h950.857c20.229 0 36.571 16.343 36.571 36.571v731.429c0 20.229-16.343 36.571-36.571 36.571zM941.714 659.657v-595.657h-859.429v595.657l-31.543 24.571 44.914 57.714 48.914-38.057h734.971l48.914 38.057 44.914-57.714-31.657-24.571zM879.543 704l-367.543-285.714-416.457 323.771-44.914-57.714 31.543-24.571 390.4-303.543c10.721-8.392 24.397-13.457 39.257-13.457s28.536 5.065 39.398 13.563l-0.141-0.106 422.171 328-44.914 57.714-48.8-37.943z" />
<glyph unicode="&#xe920;" glyph-name="map" d="M718.797 162.014c-9.387 1.143-17.852-5.581-18.944-14.95s5.598-17.852 14.95-18.944c179.473-21.129 275.063-78.063 275.063-111.053 0-46.319-181.794-110.933-477.867-110.933s-477.867 64.614-477.867 110.933c0 32.99 95.59 89.924 275.063 111.053 9.353 1.092 16.043 9.591 14.95 18.944-1.109 9.37-9.574 16.128-18.944 14.95-179.695-21.163-305.203-80.759-305.203-144.947 0-72.090 175.872-145.067 512-145.067s512 72.977 512 145.067c0 64.188-125.508 123.785-305.203 144.947zM508.979-38.519l261.82 378.146c98.202 130.918 84.002 346.112-30.396 460.493-61.815 61.833-144.009 95.881-231.424 95.881s-169.609-34.048-231.424-95.863c-114.398-114.381-128.597-329.574-30.788-459.981l262.212-378.675zM512 691.2c65.877 0 119.467-53.606 119.467-119.467s-53.589-119.467-119.467-119.467-119.467 53.606-119.467 119.467 53.589 119.467 119.467 119.467z" />
<glyph unicode="&#xe921;" glyph-name="menu" d="M960 786.286h-896c-5.029 0-9.143-4.114-9.143-9.143v-73.143c0-5.029 4.114-9.143 9.143-9.143h896c5.029 0 9.143 4.114 9.143 9.143v73.143c0 5.029-4.114 9.143-9.143 9.143zM960 73.143h-896c-5.029 0-9.143-4.114-9.143-9.143v-73.143c0-5.029 4.114-9.143 9.143-9.143h896c5.029 0 9.143 4.114 9.143 9.143v73.143c0 5.029-4.114 9.143-9.143 9.143zM960 429.714h-896c-5.029 0-9.143-4.114-9.143-9.143v-73.143c0-5.029 4.114-9.143 9.143-9.143h896c5.029 0 9.143 4.114 9.143 9.143v73.143c0 5.029-4.114 9.143-9.143 9.143z" />
<glyph unicode="&#xe922;" glyph-name="message" d="M457.143 384c0-30.297 24.56-54.857 54.857-54.857s54.857 24.56 54.857 54.857v0c0 30.297-24.56 54.857-54.857 54.857s-54.857-24.56-54.857-54.857v0zM685.714 384c0-30.297 24.56-54.857 54.857-54.857s54.857 24.56 54.857 54.857v0c0 30.297-24.56 54.857-54.857 54.857s-54.857-24.56-54.857-54.857v0zM228.571 384c0-30.297 24.56-54.857 54.857-54.857s54.857 24.56 54.857 54.857v0c0 30.297-24.56 54.857-54.857 54.857s-54.857-24.56-54.857-54.857v0zM984.229 582.4c-25.829 61.371-62.857 116.457-110.057 163.771-45.689 45.85-100.066 83.008-160.457 108.799l-3.314 1.258c-62.857 26.4-129.6 39.771-198.4 39.771h-2.286c-69.257-0.343-136.343-14.057-199.429-41.029-63.127-27.307-116.99-64.507-162.242-110.242l-0.043-0.044c-46.743-47.2-83.429-102.057-108.8-163.2-26.286-63.314-39.543-130.629-39.2-199.886 0.42-83.383 20.646-161.946 56.205-231.354l-1.348 2.897v-173.714c0-29.034 23.537-52.571 52.571-52.571v0h173.829c66.512-34.212 145.075-54.437 228.322-54.857l0.135-0.001h2.4c68.457 0 134.857 13.257 197.371 39.2 63.43 26.747 117.608 63.484 163.225 108.824l-0.025-0.024c47.2 46.743 84.343 101.371 110.286 162.286 26.971 63.086 40.686 130.171 41.029 199.429 0.343 69.6-13.143 137.143-39.771 200.686zM811.543 81.829c-80.114-79.314-186.4-122.971-299.543-122.971h-1.943c-68.914 0.343-137.371 17.486-197.829 49.714l-9.6 5.143h-160.914v160.914l-5.143 9.6c-32.229 60.457-49.371 128.914-49.714 197.829-0.457 113.943 43.086 220.914 122.971 301.486 79.771 80.571 186.4 125.143 300.343 125.6h1.943c57.143 0 112.571-11.086 164.8-33.029 50.971-21.371 96.686-52.114 136-91.429 39.2-39.2 70.057-85.029 91.429-136 22.171-52.8 33.257-108.8 33.029-166.629-0.686-113.829-45.371-220.457-125.829-300.229z" />
<glyph unicode="&#xe923;" glyph-name="qrcode" d="M461.714 822.857h-352c-20.229 0-36.571-16.343-36.571-36.571v-352c0-5.029 4.114-9.143 9.143-9.143h379.429c5.029 0 9.143 4.114 9.143 9.143v379.429c0 5.029-4.114 9.143-9.143 9.143zM397.714 498.286h-251.429v251.429h251.429v-251.429zM240 582.857h64c5.029 0 9.143 4.114 9.143 9.143v64c0 5.029-4.114 9.143-9.143 9.143h-64c-5.029 0-9.143-4.114-9.143-9.143v-64c0-5.029 4.114-9.143 9.143-9.143zM461.714 342.857h-379.429c-5.029 0-9.143-4.114-9.143-9.143v-352c0-20.229 16.343-36.571 36.571-36.571h352c5.029 0 9.143 4.114 9.143 9.143v379.429c0 5.029-4.114 9.143-9.143 9.143zM397.714 18.286h-251.429v251.429h251.429v-251.429zM240 102.857h64c5.029 0 9.143 4.114 9.143 9.143v64c0 5.029-4.114 9.143-9.143 9.143h-64c-5.029 0-9.143-4.114-9.143-9.143v-64c0-5.029 4.114-9.143 9.143-9.143zM914.286 822.857h-352c-5.029 0-9.143-4.114-9.143-9.143v-379.429c0-5.029 4.114-9.143 9.143-9.143h379.429c5.029 0 9.143 4.114 9.143 9.143v352c0 20.229-16.343 36.571-36.571 36.571zM877.714 498.286h-251.429v251.429h251.429v-251.429zM720 582.857h64c5.029 0 9.143 4.114 9.143 9.143v64c0 5.029-4.114 9.143-9.143 9.143h-64c-5.029 0-9.143-4.114-9.143-9.143v-64c0-5.029 4.114-9.143 9.143-9.143zM941.714 342.857h-54.857c-5.029 0-9.143-4.114-9.143-9.143v-153.143h-89.143v153.143c0 5.029-4.114 9.143-9.143 9.143h-217.143c-5.029 0-9.143-4.114-9.143-9.143v-379.429c0-5.029 4.114-9.143 9.143-9.143h54.857c5.029 0 9.143 4.114 9.143 9.143v278.857h89.143v-116.571c0-5.029 4.114-9.143 9.143-9.143h217.143c5.029 0 9.143 4.114 9.143 9.143v217.143c0 5.029-4.114 9.143-9.143 9.143zM779.429 18.286h-54.857c-5.029 0-9.143-4.114-9.143-9.143v-54.857c0-5.029 4.114-9.143 9.143-9.143h54.857c5.029 0 9.143 4.114 9.143 9.143v54.857c0 5.029-4.114 9.143-9.143 9.143zM941.714 18.286h-54.857c-5.029 0-9.143-4.114-9.143-9.143v-54.857c0-5.029 4.114-9.143 9.143-9.143h54.857c5.029 0 9.143 4.114 9.143 9.143v54.857c0 5.029-4.114 9.143-9.143 9.143z" />
<glyph unicode="&#xe924;" glyph-name="question-circle" d="M512 896c-282.743 0-512-229.257-512-512s229.257-512 512-512 512 229.257 512 512-229.257 512-512 512zM512-41.143c-234.743 0-425.143 190.4-425.143 425.143s190.4 425.143 425.143 425.143 425.143-190.4 425.143-425.143-190.4-425.143-425.143-425.143zM639.543 607.2c-34.286 30.057-79.543 46.514-127.543 46.514s-93.257-16.571-127.543-46.514c-35.657-31.2-55.314-73.143-55.314-118.057v-8.686c0-5.029 4.114-9.143 9.143-9.143h54.857c5.029 0 9.143 4.114 9.143 9.143v8.686c0 50.4 49.257 91.429 109.714 91.429s109.714-41.029 109.714-91.429c0-35.543-25.143-68.114-64.114-83.086-24.229-9.257-44.8-25.486-59.543-46.743-14.971-21.714-22.743-47.771-22.743-74.171v-24.571c0-5.029 4.114-9.143 9.143-9.143h54.857c5.029 0 9.143 4.114 9.143 9.143v25.943c0.128 23.216 14.568 43.028 34.94 51.070l0.374 0.13c67.429 25.943 110.971 85.371 110.971 151.429 0.114 44.914-19.543 86.857-55.2 118.057zM466.286 132.571c0-25.247 20.467-45.714 45.714-45.714s45.714 20.467 45.714 45.714v0c0 25.247-20.467 45.714-45.714 45.714s-45.714-20.467-45.714-45.714v0z" />
<glyph unicode="&#xe925;" glyph-name="question" d="M800 648.114c-16 34.971-38.743 66.4-67.771 93.257-58.971 54.743-137.257 84.914-220.229 84.914s-161.257-30.171-220.229-84.8c-29.029-26.971-51.771-58.286-67.771-93.371-16.686-36.571-25.143-75.314-25.143-115.314v-30.857c0-7.086 5.714-12.8 12.8-12.8h61.714c7.086 0 12.8 5.714 12.8 12.8v30.857c0 113.714 101.257 206.171 225.829 206.171s225.829-92.457 225.829-206.171c0-46.629-16.571-90.514-48-127.086-31.086-36.229-74.971-62.171-123.543-73.143-27.771-6.286-52.8-21.943-70.514-44.343-16.987-21.332-27.271-48.661-27.314-78.39v-35.896c0-7.086 5.714-12.8 12.8-12.8h61.714c7.086 0 12.8 5.714 12.8 12.8v35.886c0 17.943 12.457 33.714 29.714 37.6 66.743 15.086 127.314 51.086 170.629 101.371 21.829 25.486 38.857 53.829 50.629 84.571 12.229 31.886 18.4 65.371 18.4 99.429 0 40-8.457 78.857-25.143 115.314zM512 69.714c-35.314 0-64-28.686-64-64s28.686-64 64-64 64 28.686 64 64-28.686 64-64 64z" />
<glyph unicode="&#xe926;" glyph-name="safety" d="M512 832l-384-128v-384c0-212.1 171.9-384 384-384s384 171.9 384 384v384l-384 128zM824 320c0-172.3-139.7-312-312-312s-312 139.7-312 312v330l312 110 312-110v-330zM378.4 420.9c-6.504 6.533-15.505 10.576-25.45 10.576s-18.946-4.043-25.449-10.574l-0.001-0.001c-6.533-6.504-10.576-15.505-10.576-25.45s4.043-18.946 10.574-25.449l131.501-131.501c6.151-6.163 14.655-9.975 24.050-9.975s17.899 3.812 24.049 9.975l223.501 223.501c6.163 6.151 9.975 14.655 9.975 24.050s-3.812 17.899-9.975 24.049l-2.801 2.801c-6.151 6.163-14.655 9.975-24.050 9.975s-17.899-3.812-24.049-9.975l-196.701-196.601-104.6 104.6z" />
<glyph unicode="&#xe927;" glyph-name="scan" d="M82.286 530.286h64c5.029 0 9.143 4.114 9.143 9.143v201.143h201.143c5.029 0 9.143 4.114 9.143 9.143v64c0 5.029-4.114 9.143-9.143 9.143h-205.714c-42.971 0-77.714-34.743-77.714-77.714v-205.714c0-5.029 4.114-9.143 9.143-9.143zM667.429 740.571h201.143v-201.143c0-5.029 4.114-9.143 9.143-9.143h64c5.029 0 9.143 4.114 9.143 9.143v205.714c0 42.971-34.743 77.714-77.714 77.714h-205.714c-5.029 0-9.143-4.114-9.143-9.143v-64c0-5.029 4.114-9.143 9.143-9.143zM356.571 27.429h-201.143v201.143c0 5.029-4.114 9.143-9.143 9.143h-64c-5.029 0-9.143-4.114-9.143-9.143v-205.714c0-42.971 34.743-77.714 77.714-77.714h205.714c5.029 0 9.143 4.114 9.143 9.143v64c0 5.029-4.114 9.143-9.143 9.143zM941.714 237.714h-64c-5.029 0-9.143-4.114-9.143-9.143v-201.143h-201.143c-5.029 0-9.143-4.114-9.143-9.143v-64c0-5.029 4.114-9.143 9.143-9.143h205.714c42.971 0 77.714 34.743 77.714 77.714v205.714c0 5.029-4.114 9.143-9.143 9.143zM960 425.143h-896c-5.029 0-9.143-4.114-9.143-9.143v-64c0-5.029 4.114-9.143 9.143-9.143h896c5.029 0 9.143 4.114 9.143 9.143v64c0 5.029-4.114 9.143-9.143 9.143z" />
<glyph unicode="&#xe928;" glyph-name="search" d="M966.4-7.429l-296.8 296.8c46.057 59.543 70.971 132.343 70.971 208.914 0 91.657-35.771 177.6-100.457 242.4s-150.857 100.457-242.4 100.457-177.714-35.771-242.4-100.457c-64.8-64.686-100.457-150.743-100.457-242.4 0-91.543 35.771-177.714 100.457-242.4 64.686-64.8 150.743-100.457 242.4-100.457 76.571 0 149.257 24.914 208.8 70.857l296.8-296.686c1.696-1.697 4.040-2.747 6.629-2.747s4.932 1.050 6.629 2.747v0l49.829 49.714c1.697 1.696 2.747 4.040 2.747 6.629s-1.050 4.932-2.747 6.629v0zM578.743 317.257c-48.457-48.343-112.686-74.971-181.029-74.971s-132.571 26.629-181.029 74.971c-48.343 48.457-74.971 112.686-74.971 181.029s26.629 132.686 74.971 181.029c48.457 48.343 112.686 74.971 181.029 74.971s132.686-26.514 181.029-74.971 74.971-112.686 74.971-181.029-26.629-132.686-74.971-181.029z" />
<glyph unicode="&#xe929;" glyph-name="share-alt" d="M786.286 210.286c-32.571 0-62.629-11.429-86.171-30.514l-236.8 171.314c1.892 9.896 2.974 21.279 2.974 32.914s-1.082 23.018-3.151 34.053l0.177-1.139 236.8 171.314c23.543-19.086 53.6-30.514 86.171-30.514 75.657 0 137.143 61.486 137.143 137.143s-61.486 137.143-137.143 137.143-137.143-61.486-137.143-137.143c0-13.257 1.829-25.943 5.371-38.057l-224.914-162.857c-33.371 44.229-86.4 72.914-146.171 72.914-101.029 0-182.857-81.829-182.857-182.857s81.829-182.857 182.857-182.857c59.771 0 112.8 28.686 146.171 72.914l224.914-162.857c-3.543-12.114-5.371-24.914-5.371-38.057 0-75.657 61.486-137.143 137.143-137.143s137.143 61.486 137.143 137.143-61.486 137.143-137.143 137.143zM786.286 754.286c32.8 0 59.429-26.629 59.429-59.429s-26.629-59.429-59.429-59.429-59.429 26.629-59.429 59.429 26.629 59.429 59.429 59.429zM283.429 283.429c-55.429 0-100.571 45.143-100.571 100.571s45.143 100.571 100.571 100.571 100.571-45.143 100.571-100.571-45.143-100.571-100.571-100.571zM786.286 13.714c-32.8 0-59.429 26.629-59.429 59.429s26.629 59.429 59.429 59.429 59.429-26.629 59.429-59.429-26.629-59.429-59.429-59.429z" />
<glyph unicode="&#xe92a;" glyph-name="shop" d="M934.857 658.171v146.4c0 20.229-16.343 36.571-36.571 36.571h-772.571c-20.229 0-36.571-16.343-36.571-36.571v-146.4c-19.086-1.143-34.286-17.029-34.286-36.457v-150.514c0-0.159-0.001-0.347-0.001-0.535 0-28.888 6.055-56.361 16.966-81.221l-0.508 1.299c4.914-11.657 10.971-22.629 17.829-33.029v-394.286c0-20.114 16.343-36.571 36.571-36.571h772.571c20.229 0 36.571 16.343 36.571 36.571v394.286c6.429 9.477 12.395 20.33 17.329 31.733l0.499 1.295c10.857 25.486 16.457 52.571 16.457 80.457v150.514c0 19.429-15.2 35.314-34.286 36.457zM171.429 758.857h681.143v-100.571h-681.143v100.571zM585.143 9.029h-146.286v118.971h146.286v-118.971zM852.571 9.029h-194.286v155.543c0 20.229-16.343 36.571-36.571 36.571h-219.429c-20.229 0-36.571-16.343-36.571-36.571v-155.543h-194.286v276.8c3.314-1.6 6.743-3.2 10.286-4.571 25.486-10.743 52.571-16.114 80.457-16.114s54.857 5.371 80.457 16.114c15.771 6.629 30.629 15.086 44.229 25.257 0.229 0.114 0.457 0.114 0.686 0 12.782-9.665 27.342-18.132 42.881-24.747l1.348-0.51c25.486-10.743 52.571-16.114 80.457-16.114s54.857 5.371 80.457 16.114c15.771 6.629 30.629 15.086 44.229 25.257 0.229 0.114 0.457 0.114 0.686 0 12.782-9.665 27.342-18.132 42.881-24.747l1.348-0.51c25.486-10.743 52.571-16.114 80.457-16.114s54.857 5.371 80.457 16.114c3.429 1.486 6.857 2.971 10.286 4.571v-276.8zM886.857 471.2c0-68.343-56-123.771-124.914-123.771-46.629 0-87.314 25.257-108.8 62.743-3.314 5.714-9.257 9.257-15.886 9.257h-0.686c-6.514 0-12.571-3.543-15.886-9.257-21.945-37.76-62.207-62.743-108.304-62.743-0.134 0-0.268 0-0.403 0.001h0.021c-46.514 0-87.086 25.143-108.571 62.514-3.429 5.829-9.6 9.486-16.343 9.486s-13.029-3.657-16.343-9.486c-22.084-37.641-62.352-62.515-108.43-62.515-0.090 0-0.18 0-0.27 0h0.014c-68.914 0-124.914 55.429-124.914 123.771v104.229c0 0.343 0.229 0.571 0.571 0.571h748.571c0.343 0 0.571-0.229 0.571-0.571v-104.229z" />
<glyph unicode="&#xe92b;" glyph-name="shopping-cart" d="M922.9 194.1h-595.5l29.9 60.9 496.8 0.9c16.8 0 31.2 12 34.2 28.6l68.8 385.1c1.8 10.1-0.9 20.5-7.5 28.4-6.418 7.614-15.94 12.435-26.589 12.5h-0.011l-632 2.1-5.4 25.4c-3.4 16.2-18 28-34.6 28h-154.5c-19.496 0-35.3-15.804-35.3-35.3s15.804-35.3 35.3-35.3v0h125.9l23.6-112.2 58.1-281.3-74.8-122.1c-4.291-5.739-6.87-12.974-6.87-20.812 0-5.838 1.431-11.342 3.962-16.18l-0.092 0.193c6-11.9 18.1-19.4 31.5-19.4h62.8c-12.859-16.934-20.6-38.368-20.6-61.61 0-0.032 0-0.063 0-0.095v0.005c0-56.6 46-102.6 102.6-102.6s102.6 46 102.6 102.6c0 22.3-7.4 44-20.6 61.7h161.1c-12.859-16.934-20.6-38.368-20.6-61.61 0-0.032 0-0.063 0-0.095v0.005c0-56.6 46-102.6 102.6-102.6s102.6 46 102.6 102.6c0 22.3-7.4 44-20.6 61.7h113.3c19.4 0 35.3 15.8 35.3 35.3-0.125 19.46-15.924 35.189-35.399 35.2h-0.001zM305.7 643l575.8-1.9-56.4-315.8-452.3-0.8-67.1 318.5zM402.6 30.3c-17.4 0-31.6 14.2-31.6 31.6s14.2 31.6 31.6 31.6 31.6-14.2 31.6-31.6c0-17.452-14.148-31.6-31.6-31.6v0zM727.7 30.3c-17.4 0-31.6 14.2-31.6 31.6s14.2 31.6 31.6 31.6 31.6-14.2 31.6-31.6c0-17.452-14.148-31.6-31.6-31.6v0z" />
<glyph unicode="&#xe92c;" glyph-name="star" d="M964.686 565.6l-290.171 42.171-129.714 262.971c-3.543 7.2-9.371 13.029-16.571 16.571-18.057 8.914-40 1.486-49.029-16.571l-129.714-262.971-290.171-42.171c-8-1.143-15.314-4.914-20.914-10.629-6.418-6.591-10.375-15.605-10.375-25.543 0-10.279 4.234-19.569 11.054-26.222l0.008-0.007 209.943-204.686-49.6-289.029c-0.34-1.871-0.534-4.025-0.534-6.224 0-20.166 16.348-36.514 36.514-36.514 6.237 0 12.108 1.564 17.244 4.32l-0.195-0.096 259.543 136.457 259.543-136.457c7.086-3.771 15.314-5.029 23.2-3.657 19.886 3.429 33.257 22.286 29.829 42.171l-49.6 289.029 209.943 204.686c5.714 5.6 9.486 12.914 10.629 20.914 3.086 20-10.857 38.514-30.857 41.486zM686.629 327.314l41.257-240.343-215.886 113.371-215.886-113.486 41.257 240.343-174.629 170.286 241.371 35.086 107.886 218.629 107.886-218.629 241.371-35.086-174.629-170.171z" />
<glyph unicode="&#xe92d;" glyph-name="team" d="M868.8 169.257c-27.894 27.916-60.55 51.069-96.646 68.137l-2.097 0.892c51.771 41.943 84.8 105.943 84.8 177.714 0 126.629-105.6 230.514-232.229 228.571-124.686-1.943-225.143-103.543-225.143-228.571 0-71.771 33.143-135.771 84.8-177.714-38.198-17.946-70.856-41.1-98.739-69.024l-0.004-0.004c-62.4-62.514-97.829-145.029-100.114-233.029-0.002-0.068-0.003-0.148-0.003-0.229 0-5.049 4.093-9.143 9.143-9.143 0.001 0 0.002 0 0.003 0h64c4.914 0 9.029 3.886 9.143 8.8 2.171 66.286 29.029 128.343 76.229 175.429 46.917 47.159 111.861 76.344 183.622 76.344 0.254 0 0.507 0 0.761-0.001h-0.039c69.6 0 135.086-27.086 184.343-76.343 47.086-47.086 73.943-109.143 76.229-175.429 0.114-4.914 4.229-8.8 9.143-8.8h64c0.001 0 0.002 0 0.003 0 5.049 0 9.143 4.093 9.143 9.143 0 0.080-0.001 0.161-0.003 0.24v-0.012c-2.286 88-37.714 170.514-100.343 233.029zM626.286 269.714c-39.086 0-75.886 15.2-103.429 42.857-26.479 26.277-42.871 62.686-42.871 102.923 0 0.7 0.005 1.399 0.015 2.097l-0.001-0.106c0.343 37.486 15.314 73.714 41.486 100.571 27.429 28.114 64.114 43.771 103.314 44.229 38.743 0.343 76.343-14.743 104-41.829 28.343-27.771 43.886-64.914 43.886-104.457 0-39.086-15.2-75.771-42.857-103.429-26.352-26.475-62.822-42.858-103.119-42.858-0.149 0-0.298 0-0.447 0.001h0.023zM340 385.829c-1.029 9.943-1.6 20-1.6 30.171 0 18.171 1.714 35.886 4.914 53.143 0.8 4.114-1.371 8.343-5.143 10.057-15.543 6.971-29.829 16.571-42.171 28.686-27.332 26.525-44.294 63.605-44.294 104.646 0 1.541 0.024 3.077 0.071 4.607l-0.006-0.224c1.029 36.686 15.771 71.543 41.486 97.829 28.229 28.914 66.171 44.686 106.514 44.229 36.457-0.343 71.657-14.4 98.286-39.314 9.029-8.457 16.8-17.829 23.314-27.886 2.286-3.543 6.743-5.029 10.629-3.657 20.114 6.971 41.371 11.886 63.2 14.171 6.4 0.686 10.057 7.543 7.2 13.257-37.143 73.486-113.029 124.229-200.8 125.6-126.743 1.943-232.343-101.943-232.343-228.457 0-71.771 33.029-135.771 84.8-177.714-36.343-16.8-69.829-40-98.857-69.029-62.629-62.514-98.057-145.029-100.343-233.143-0.002-0.068-0.003-0.148-0.003-0.229 0-5.049 4.093-9.143 9.143-9.143 0.001 0 0.002 0 0.003 0h64.114c4.914 0 9.029 3.886 9.143 8.8 2.171 66.286 29.029 128.343 76.229 175.429 33.6 33.6 74.743 56.914 119.657 68.229 4.457 1.143 7.429 5.371 6.857 9.943z" />
<glyph unicode="&#xe92e;" glyph-name="user-add" d="M702.057 234.971c27.657 14.857 59.314 23.314 93.029 23.314h0.114c3.429 0 5.029 4.114 2.514 6.4-33.773 30.409-72.945 55.695-115.757 74.143l-2.758 1.057c-0.457 0.229-0.914 0.343-1.371 0.571 70.971 51.543 117.143 135.314 117.143 229.829 0 156.571-126.629 283.429-282.857 283.429s-282.743-126.857-282.743-283.429c0-94.514 46.171-178.286 117.257-229.829-0.457-0.229-0.914-0.343-1.371-0.571-51.086-21.6-96.914-52.571-136.343-92.114-38.206-38.139-69.215-83.471-90.825-133.795l-1.060-2.776c-20.196-46.508-32.441-100.587-33.593-157.39l-0.007-0.439c-0.002-0.068-0.003-0.148-0.003-0.229 0-5.049 4.093-9.143 9.143-9.143 0.001 0 0.002 0 0.003 0h68.457c4.914 0 9.029 4 9.143 8.914 2.286 88.229 37.6 170.857 100.114 233.486 64.571 64.8 150.514 100.457 241.943 100.457 64.8 0 126.971-17.943 180.571-51.543 1.397-0.89 3.099-1.419 4.925-1.419 1.585 0 3.077 0.398 4.381 1.1l-0.049-0.024zM512.229 373.714c-52.343 0-101.6 20.457-138.743 57.6-35.514 35.425-57.486 84.411-57.486 138.53 0 0.155 0 0.31 0.001 0.466v-0.024c0 52.457 20.457 101.829 57.486 138.971s86.286 57.6 138.743 57.6 101.6-20.457 138.743-57.6c35.514-35.425 57.486-84.411 57.486-138.53 0-0.155 0-0.31-0.001-0.466v0.024c0-52.457-20.457-101.829-57.486-138.971-37.143-37.143-86.4-57.6-138.743-57.6zM932.571 101.714h-96v96c0 5.029-4.114 9.143-9.143 9.143h-64c-5.029 0-9.143-4.114-9.143-9.143v-96h-96c-5.029 0-9.143-4.114-9.143-9.143v-64c0-5.029 4.114-9.143 9.143-9.143h96v-96c0-5.029 4.114-9.143 9.143-9.143h64c5.029 0 9.143 4.114 9.143 9.143v96h96c5.029 0 9.143 4.114 9.143 9.143v64c0 5.029-4.114 9.143-9.143 9.143z" />
<glyph unicode="&#xe92f;" glyph-name="user-delete" d="M702.057 220.114c27.657 14.857 59.314 23.314 93.029 23.314h0.114c3.429 0 5.029 4.114 2.514 6.4-33.773 30.409-72.945 55.695-115.757 74.143l-2.758 1.057c-0.457 0.229-0.914 0.343-1.371 0.571 70.971 51.543 117.143 135.314 117.143 229.829 0 156.571-126.629 283.429-282.857 283.429s-282.743-126.857-282.743-283.429c0-94.514 46.171-178.286 117.257-229.829-0.457-0.229-0.914-0.343-1.371-0.571-51.086-21.6-96.914-52.571-136.343-92.114-38.206-38.139-69.215-83.471-90.825-133.795l-1.060-2.776c-20.196-46.508-32.441-100.587-33.593-157.39l-0.007-0.439c-0.002-0.068-0.003-0.148-0.003-0.229 0-5.049 4.093-9.143 9.143-9.143 0.001 0 0.002 0 0.003 0h68.457c4.914 0 9.029 4 9.143 8.914 2.286 88.229 37.6 170.857 100.114 233.486 64.571 64.8 150.514 100.457 241.943 100.457 64.8 0 126.971-17.943 180.571-51.543 1.397-0.89 3.099-1.419 4.925-1.419 1.585 0 3.077 0.398 4.381 1.1l-0.049-0.024zM512.229 358.857c-52.343 0-101.6 20.457-138.743 57.6-35.514 35.425-57.486 84.411-57.486 138.53 0 0.155 0 0.31 0.001 0.466v-0.024c0 52.457 20.457 101.829 57.486 138.971s86.286 57.6 138.743 57.6 101.6-20.457 138.743-57.6c35.514-35.425 57.486-84.411 57.486-138.53 0-0.155 0-0.31-0.001-0.466v0.024c0-52.457-20.457-101.829-57.486-138.971-37.143-37.143-86.4-57.6-138.743-57.6zM932.571 86.857h-274.286c-5.029 0-9.143-4.114-9.143-9.143v-64c0-5.029 4.114-9.143 9.143-9.143h274.286c5.029 0 9.143 4.114 9.143 9.143v64c0 5.029-4.114 9.143-9.143 9.143z" />
<glyph unicode="&#xe930;" glyph-name="user" d="M908 96.457c-22.754 53.104-53.836 98.434-92.102 136.559l-0.013 0.013c-38.161 38.24-83.484 69.315-133.789 91.044l-2.783 1.070c-0.457 0.229-0.914 0.343-1.371 0.571 71.2 51.429 117.486 135.2 117.486 229.714 0 156.571-126.857 283.429-283.429 283.429s-283.429-126.857-283.429-283.429c0-94.514 46.286-178.286 117.486-229.829-0.457-0.229-0.914-0.343-1.371-0.571-51.2-21.6-97.143-52.571-136.571-92.114-38.24-38.161-69.315-83.484-91.044-133.789l-1.070-2.783c-20.284-46.497-32.574-100.58-33.708-157.399l-0.007-0.43c-0.002-0.068-0.003-0.148-0.003-0.229 0-5.049 4.093-9.143 9.143-9.143 0.001 0 0.002 0 0.003 0h68.571c5.029 0 9.029 4 9.143 8.914 2.286 88.229 37.714 170.857 100.343 233.486 64.8 64.8 150.857 100.457 242.514 100.457s177.714-35.657 242.514-100.457c62.629-62.629 98.057-145.257 100.343-233.486 0.114-5.029 4.114-8.914 9.143-8.914h68.571c0.001 0 0.002 0 0.003 0 5.049 0 9.143 4.093 9.143 9.143 0 0.080-0.001 0.161-0.003 0.24v-0.012c-1.143 54.629-12.457 107.771-33.714 157.943zM512 358.857c-52.457 0-101.829 20.457-138.971 57.6s-57.6 86.514-57.6 138.971c0 52.457 20.457 101.829 57.6 138.971s86.514 57.6 138.971 57.6 101.829-20.457 138.971-57.6 57.6-86.514 57.6-138.971c0-52.457-20.457-101.829-57.6-138.971s-86.514-57.6-138.971-57.6z" />
<glyph unicode="&#xe931;" glyph-name="warning" d="M457.143 146.286c0-30.297 24.56-54.857 54.857-54.857s54.857 24.56 54.857 54.857v0c0 30.297-24.56 54.857-54.857 54.857s-54.857-24.56-54.857-54.857v0zM475.429 493.714v-210.286c0-5.029 4.114-9.143 9.143-9.143h54.857c5.029 0 9.143 4.114 9.143 9.143v210.286c0 5.029-4.114 9.143-9.143 9.143h-54.857c-5.029 0-9.143-4.114-9.143-9.143zM1019.086-9.143l-475.429 822.857c-7.086 12.229-19.314 18.286-31.657 18.286s-24.686-6.057-31.657-18.286l-475.429-822.857c-14.057-24.457 3.543-54.857 31.657-54.857h950.857c28.114 0 45.714 30.4 31.657 54.857zM123.657 22.743l388.343 672.229 388.343-672.229h-776.686z" />
<glyph unicode="&#xe932;" glyph-name="phone" d="M929.257 696.343l-121.714 121.6c-14.857 14.857-34.743 23.2-55.771 23.2s-40.914-8.229-55.771-23.2l-131.086-130.857c-14.857-14.857-23.2-34.857-23.2-55.886 0-21.143 8.229-40.914 23.2-55.886l102.4-102.514c-24.616-56.524-57.899-104.783-98.73-145.473l-0.013-0.013c-41.943-42.171-90.971-75.429-145.371-98.971l-102.4 102.514c-14.857 14.857-34.743 23.2-55.771 23.2-0.086 0-0.187 0.001-0.288 0.001-21.707 0-41.342-8.874-55.475-23.192l-0.008-0.008-131.2-130.857c-14.857-14.857-23.2-34.857-23.2-55.886 0-21.143 8.229-40.914 23.2-55.886l121.6-121.6c25.371-25.371 60.343-39.886 96.229-39.886 7.429 0 14.629 0.571 21.943 1.829 151.314 24.914 301.486 105.486 422.743 226.629 121.143 121.371 201.6 271.543 226.743 422.971 7.2 42.971-7.2 87.2-38.057 118.171zM886.286 591.771c-22.286-134.743-94.743-269.143-203.886-378.286s-243.429-181.6-378.171-203.886c-16.914-2.857-34.286 2.857-46.629 15.086l-119.429 119.429 126.629 126.743 137.943-138.171 24.686 9.143c151.894 56.952 269.613 174.708 325.265 322.836l1.249 3.792 9.143 24.686-138.057 137.943 126.629 126.743 119.429-119.429c12.343-12.343 18.057-29.714 15.2-46.629z" />
</font>
</defs>
</svg>
